<mxfile host="app.diagrams.net" agent="Mozilla/5.0 (Windows NT 10.0; Win64; x64; rv:133.0) Gecko/20100101 Firefox/133.0" version="25.0.3">
  <diagram name="Seite-1" id="D6MCeGrKerhMQp70AOl7">
    <mxGraphModel dx="1293" dy="697" grid="1" gridSize="10" guides="1" tooltips="1" connect="1" arrows="1" fold="1" page="1" pageScale="1" pageWidth="827" pageHeight="1169" math="0" shadow="0">
      <root>
        <mxCell id="0" />
        <mxCell id="1" parent="0" />
        <object label="Calendar" btelligentShapeType="Dimension" btelligentLibrary="ADAPT" id="f77LYvtL0lH_vqSuSwCJ-1">
          <mxCell style="group;fillColor=default;verticalAlign=middle;align=left;spacingLeft=31;fontStyle=1;connectable=1;" parent="1" vertex="1" connectable="0">
            <mxGeometry x="240" y="80" width="160" height="40" as="geometry" />
          </mxCell>
        </object>
        <object label="GGG" id="f77LYvtL0lH_vqSuSwCJ-2">
          <mxCell style="rounded=0;whiteSpace=wrap;html=1;noLabel=1;container=0;editable=0;movable=1;resizable=1;rotatable=1;deletable=1;locked=0;connectable=0;fillColor=none;" parent="f77LYvtL0lH_vqSuSwCJ-1" vertex="1">
            <mxGeometry width="160" height="40" as="geometry" />
          </mxCell>
        </object>
        <mxCell id="f77LYvtL0lH_vqSuSwCJ-3" value="" style="rounded=0;whiteSpace=wrap;html=1;fillColor=#000000;fontColor=#ffffff;strokeColor=#000000;strokeWidth=1;deletable=1;cloneable=0;movable=1;editable=1;resizable=1;rotatable=1;locked=0;connectable=1;container=0;expand=0;recursiveResize=0;allowArrows=0;" parent="f77LYvtL0lH_vqSuSwCJ-1" vertex="1">
          <mxGeometry x="6.000000000000028" y="14" width="10" height="10" as="geometry" />
        </mxCell>
        <mxCell id="f77LYvtL0lH_vqSuSwCJ-4" value="" style="endArrow=block;html=1;rounded=0;endFill=1;startSize=2;endSize=3;strokeWidth=1;deletable=1;cloneable=0;movable=1;editable=1;resizable=1;rotatable=1;locked=0;connectable=1;" parent="f77LYvtL0lH_vqSuSwCJ-1" edge="1">
          <mxGeometry width="50" height="50" relative="1" as="geometry">
            <mxPoint x="15.000000000000028" y="14" as="sourcePoint" />
            <mxPoint x="28.00000000000003" y="14" as="targetPoint" />
          </mxGeometry>
        </mxCell>
        <mxCell id="f77LYvtL0lH_vqSuSwCJ-5" value="" style="endArrow=block;html=1;rounded=0;endFill=1;startSize=2;endSize=3;strokeWidth=1;deletable=1;cloneable=0;movable=1;editable=1;resizable=1;rotatable=1;locked=0;connectable=1;" parent="f77LYvtL0lH_vqSuSwCJ-1" edge="1">
          <mxGeometry width="50" height="50" relative="1" as="geometry">
            <mxPoint x="6.000000000000028" y="22" as="sourcePoint" />
            <mxPoint x="6.000000000000028" y="36" as="targetPoint" />
          </mxGeometry>
        </mxCell>
        <mxCell id="f77LYvtL0lH_vqSuSwCJ-6" value="" style="endArrow=block;html=1;rounded=0;endFill=1;startSize=2;endSize=3;strokeWidth=1;deletable=1;cloneable=0;movable=1;editable=1;resizable=1;rotatable=1;locked=0;connectable=1;" parent="f77LYvtL0lH_vqSuSwCJ-1" edge="1">
          <mxGeometry width="50" height="50" relative="1" as="geometry">
            <mxPoint x="6.000000000000028" y="14" as="sourcePoint" />
            <mxPoint x="17.00000000000003" y="4" as="targetPoint" />
          </mxGeometry>
        </mxCell>
        <object label="QM Hierarchy" btelligentShapeType="Hierarchy" btelligentLibrary="ADAPT" id="f77LYvtL0lH_vqSuSwCJ-7">
          <mxCell style="group;fillColor=default;verticalAlign=middle;align=left;spacingLeft=32;connectable=1;" parent="1" vertex="1" connectable="0">
            <mxGeometry x="240" y="240" width="160" height="40" as="geometry" />
          </mxCell>
        </object>
        <mxCell id="f77LYvtL0lH_vqSuSwCJ-8" value="Hierarchy" style="shape=loopLimit;whiteSpace=wrap;html=1;size=20;verticalAlign=middle;spacingLeft=37;align=left;container=0;fillColor=none;noLabel=1;editable=0;movable=1;resizable=1;rotatable=1;deletable=1;locked=0;connectable=0;" parent="f77LYvtL0lH_vqSuSwCJ-7" vertex="1">
          <mxGeometry width="160" height="40" as="geometry" />
        </mxCell>
        <mxCell id="f77LYvtL0lH_vqSuSwCJ-9" value="" style="group;movable=1;resizable=1;rotatable=1;deletable=1;editable=1;locked=0;connectable=1;" parent="f77LYvtL0lH_vqSuSwCJ-7" vertex="1" connectable="0">
          <mxGeometry x="5" y="10" width="24" height="24" as="geometry" />
        </mxCell>
        <mxCell id="f77LYvtL0lH_vqSuSwCJ-10" style="vsdxID=8;fillColor=#C0C0C0;gradientColor=none;shape=stencil(rVFBDsIwDHtNj5VCK14wxj8ilm0VZZ3SAuX3tAoIBhwQ4mbHjhMlyjZxxJmUgZg47OnsujQqu1HGuGkkdqkgZVtlmz4wDRyOUyd8xuqs6BBONSFLH9QOAxdha6FbcSLvisR5oQEvvfegFXyMgqwxu6g5JEwuTIupHnkgXcbo3uNwyxEpnonmt/Ivi/1nLfhirQIeZ+6d9/KlZ/31LaUkL7XtFQ==);strokeColor=#000000;spacingTop=-3;spacingBottom=-3;spacingLeft=-3;spacingRight=-3;points=[];labelBackgroundColor=none;rounded=0;html=1;whiteSpace=wrap;container=0;" parent="f77LYvtL0lH_vqSuSwCJ-9" vertex="1">
          <mxGeometry y="15" width="9" height="9" as="geometry" />
        </mxCell>
        <mxCell id="f77LYvtL0lH_vqSuSwCJ-11" style="vsdxID=9;fillColor=#C0C0C0;gradientColor=none;shape=stencil(rVFBDsIwDHtNj5VCK14wxj8ilm0VZZ3SAuX3tAoIBhwQ4mbHjhMlyjZxxJmUgZg47OnsujQqu1HGuGkkdqkgZVtlmz4wDRyOUyd8xuqs6BBONSFLH9QOAxdha6FbcSLvisR5oQEvvfegFXyMgqwxu6g5JEwuTIupHnkgXcbo3uNwyxEpnonmt/Ivi/1nLfhirQIeZ+6d9/KlZ/31LaUkL7XtFQ==);strokeColor=#000000;spacingTop=-3;spacingBottom=-3;spacingLeft=-3;spacingRight=-3;points=[];labelBackgroundColor=none;rounded=0;html=1;whiteSpace=wrap;container=0;" parent="f77LYvtL0lH_vqSuSwCJ-9" vertex="1">
          <mxGeometry x="15" y="15" width="9" height="9" as="geometry" />
        </mxCell>
        <mxCell id="f77LYvtL0lH_vqSuSwCJ-12" style="vsdxID=10;fillColor=#C0C0C0;gradientColor=none;shape=stencil(rVFBDsIwDHtNj5VCK14wxj8ilm0VZZ3SAuX3tAoIBhwQ4mbHjhMlyjZxxJmUgZg47OnsujQqu1HGuGkkdqkgZVtlmz4wDRyOUyd8xuqs6BBONSFLH9QOAxdha6FbcSLvisR5oQEvvfegFXyMgqwxu6g5JEwuTIupHnkgXcbo3uNwyxEpnonmt/Ivi/1nLfhirQIeZ+6d9/KlZ/31LaUkL7XtFQ==);strokeColor=#000000;spacingTop=-3;spacingBottom=-3;spacingLeft=-3;spacingRight=-3;points=[];labelBackgroundColor=none;rounded=0;html=1;whiteSpace=wrap;container=0;" parent="f77LYvtL0lH_vqSuSwCJ-9" vertex="1">
          <mxGeometry x="7" width="9" height="9" as="geometry" />
        </mxCell>
        <mxCell id="f77LYvtL0lH_vqSuSwCJ-13" value="" style="vsdxID=11;edgeStyle=none;startArrow=none;endArrow=none;startSize=5;endSize=5;strokeColor=#000000;spacingTop=-3;spacingBottom=-3;spacingLeft=-3;spacingRight=-3;verticalAlign=middle;html=1;labelBackgroundColor=none;rounded=0;" parent="f77LYvtL0lH_vqSuSwCJ-9" edge="1">
          <mxGeometry relative="1" as="geometry">
            <Array as="points" />
            <mxPoint x="6" y="15" as="sourcePoint" />
            <mxPoint x="10" y="9" as="targetPoint" />
          </mxGeometry>
        </mxCell>
        <mxCell id="f77LYvtL0lH_vqSuSwCJ-14" value="" style="vsdxID=12;edgeStyle=none;startArrow=none;endArrow=none;startSize=5;endSize=5;strokeColor=#000000;spacingTop=-3;spacingBottom=-3;spacingLeft=-3;spacingRight=-3;verticalAlign=middle;html=1;labelBackgroundColor=none;rounded=0;" parent="f77LYvtL0lH_vqSuSwCJ-9" target="f77LYvtL0lH_vqSuSwCJ-12" edge="1">
          <mxGeometry relative="1" as="geometry">
            <Array as="points" />
            <mxPoint x="18" y="15" as="sourcePoint" />
            <mxPoint x="15" y="9" as="targetPoint" />
          </mxGeometry>
        </mxCell>
        <object label="JQMT Hierarchy" btelligentShapeType="Hierarchy" btelligentLibrary="ADAPT" id="f77LYvtL0lH_vqSuSwCJ-15">
          <mxCell style="group;fillColor=default;verticalAlign=middle;align=left;spacingLeft=32;" parent="1" vertex="1" connectable="0">
            <mxGeometry x="440" y="240" width="160" height="40" as="geometry" />
          </mxCell>
        </object>
        <mxCell id="f77LYvtL0lH_vqSuSwCJ-16" value="Hierarchy" style="shape=loopLimit;whiteSpace=wrap;html=1;size=20;verticalAlign=middle;spacingLeft=37;align=left;container=0;fillColor=none;noLabel=1;editable=0;movable=1;resizable=1;rotatable=1;deletable=1;locked=0;connectable=1;" parent="f77LYvtL0lH_vqSuSwCJ-15" vertex="1">
          <mxGeometry width="160" height="40" as="geometry" />
        </mxCell>
        <mxCell id="f77LYvtL0lH_vqSuSwCJ-17" value="" style="group;movable=1;resizable=1;rotatable=1;deletable=1;editable=1;locked=0;connectable=1;" parent="f77LYvtL0lH_vqSuSwCJ-15" vertex="1" connectable="0">
          <mxGeometry x="5" y="10" width="24" height="24" as="geometry" />
        </mxCell>
        <mxCell id="f77LYvtL0lH_vqSuSwCJ-18" style="vsdxID=8;fillColor=#C0C0C0;gradientColor=none;shape=stencil(rVFBDsIwDHtNj5VCK14wxj8ilm0VZZ3SAuX3tAoIBhwQ4mbHjhMlyjZxxJmUgZg47OnsujQqu1HGuGkkdqkgZVtlmz4wDRyOUyd8xuqs6BBONSFLH9QOAxdha6FbcSLvisR5oQEvvfegFXyMgqwxu6g5JEwuTIupHnkgXcbo3uNwyxEpnonmt/Ivi/1nLfhirQIeZ+6d9/KlZ/31LaUkL7XtFQ==);strokeColor=#000000;spacingTop=-3;spacingBottom=-3;spacingLeft=-3;spacingRight=-3;points=[];labelBackgroundColor=none;rounded=0;html=1;whiteSpace=wrap;container=0;" parent="f77LYvtL0lH_vqSuSwCJ-17" vertex="1">
          <mxGeometry y="15" width="9" height="9" as="geometry" />
        </mxCell>
        <mxCell id="f77LYvtL0lH_vqSuSwCJ-19" style="vsdxID=9;fillColor=#C0C0C0;gradientColor=none;shape=stencil(rVFBDsIwDHtNj5VCK14wxj8ilm0VZZ3SAuX3tAoIBhwQ4mbHjhMlyjZxxJmUgZg47OnsujQqu1HGuGkkdqkgZVtlmz4wDRyOUyd8xuqs6BBONSFLH9QOAxdha6FbcSLvisR5oQEvvfegFXyMgqwxu6g5JEwuTIupHnkgXcbo3uNwyxEpnonmt/Ivi/1nLfhirQIeZ+6d9/KlZ/31LaUkL7XtFQ==);strokeColor=#000000;spacingTop=-3;spacingBottom=-3;spacingLeft=-3;spacingRight=-3;points=[];labelBackgroundColor=none;rounded=0;html=1;whiteSpace=wrap;container=0;" parent="f77LYvtL0lH_vqSuSwCJ-17" vertex="1">
          <mxGeometry x="15" y="15" width="9" height="9" as="geometry" />
        </mxCell>
        <mxCell id="f77LYvtL0lH_vqSuSwCJ-20" style="vsdxID=10;fillColor=#C0C0C0;gradientColor=none;shape=stencil(rVFBDsIwDHtNj5VCK14wxj8ilm0VZZ3SAuX3tAoIBhwQ4mbHjhMlyjZxxJmUgZg47OnsujQqu1HGuGkkdqkgZVtlmz4wDRyOUyd8xuqs6BBONSFLH9QOAxdha6FbcSLvisR5oQEvvfegFXyMgqwxu6g5JEwuTIupHnkgXcbo3uNwyxEpnonmt/Ivi/1nLfhirQIeZ+6d9/KlZ/31LaUkL7XtFQ==);strokeColor=#000000;spacingTop=-3;spacingBottom=-3;spacingLeft=-3;spacingRight=-3;points=[];labelBackgroundColor=none;rounded=0;html=1;whiteSpace=wrap;container=0;" parent="f77LYvtL0lH_vqSuSwCJ-17" vertex="1">
          <mxGeometry x="7" width="9" height="9" as="geometry" />
        </mxCell>
        <mxCell id="f77LYvtL0lH_vqSuSwCJ-21" value="" style="vsdxID=11;edgeStyle=none;startArrow=none;endArrow=none;startSize=5;endSize=5;strokeColor=#000000;spacingTop=-3;spacingBottom=-3;spacingLeft=-3;spacingRight=-3;verticalAlign=middle;html=1;labelBackgroundColor=none;rounded=0;" parent="f77LYvtL0lH_vqSuSwCJ-17" edge="1">
          <mxGeometry relative="1" as="geometry">
            <Array as="points" />
            <mxPoint x="6" y="15" as="sourcePoint" />
            <mxPoint x="10" y="9" as="targetPoint" />
          </mxGeometry>
        </mxCell>
        <mxCell id="f77LYvtL0lH_vqSuSwCJ-22" value="" style="vsdxID=12;edgeStyle=none;startArrow=none;endArrow=none;startSize=5;endSize=5;strokeColor=#000000;spacingTop=-3;spacingBottom=-3;spacingLeft=-3;spacingRight=-3;verticalAlign=middle;html=1;labelBackgroundColor=none;rounded=0;" parent="f77LYvtL0lH_vqSuSwCJ-17" target="f77LYvtL0lH_vqSuSwCJ-20" edge="1">
          <mxGeometry relative="1" as="geometry">
            <Array as="points" />
            <mxPoint x="18" y="15" as="sourcePoint" />
            <mxPoint x="15" y="9" as="targetPoint" />
          </mxGeometry>
        </mxCell>
        <object label="JMT Hierarchy" btelligentShapeType="Hierarchy" btelligentLibrary="ADAPT" id="f77LYvtL0lH_vqSuSwCJ-23">
          <mxCell style="group;fillColor=default;verticalAlign=middle;align=left;spacingLeft=32;" parent="1" vertex="1" connectable="0">
            <mxGeometry x="640" y="240" width="160" height="40" as="geometry" />
          </mxCell>
        </object>
        <mxCell id="f77LYvtL0lH_vqSuSwCJ-24" value="Hierarchy" style="shape=loopLimit;whiteSpace=wrap;html=1;size=20;verticalAlign=middle;spacingLeft=37;align=left;container=0;fillColor=none;noLabel=1;editable=0;movable=1;resizable=1;rotatable=1;deletable=1;locked=0;connectable=1;" parent="f77LYvtL0lH_vqSuSwCJ-23" vertex="1">
          <mxGeometry width="160" height="40" as="geometry" />
        </mxCell>
        <mxCell id="f77LYvtL0lH_vqSuSwCJ-25" value="" style="group;movable=1;resizable=1;rotatable=1;deletable=1;editable=1;locked=0;connectable=1;" parent="f77LYvtL0lH_vqSuSwCJ-23" vertex="1" connectable="0">
          <mxGeometry x="5" y="10" width="24" height="24" as="geometry" />
        </mxCell>
        <mxCell id="f77LYvtL0lH_vqSuSwCJ-26" style="vsdxID=8;fillColor=#C0C0C0;gradientColor=none;shape=stencil(rVFBDsIwDHtNj5VCK14wxj8ilm0VZZ3SAuX3tAoIBhwQ4mbHjhMlyjZxxJmUgZg47OnsujQqu1HGuGkkdqkgZVtlmz4wDRyOUyd8xuqs6BBONSFLH9QOAxdha6FbcSLvisR5oQEvvfegFXyMgqwxu6g5JEwuTIupHnkgXcbo3uNwyxEpnonmt/Ivi/1nLfhirQIeZ+6d9/KlZ/31LaUkL7XtFQ==);strokeColor=#000000;spacingTop=-3;spacingBottom=-3;spacingLeft=-3;spacingRight=-3;points=[];labelBackgroundColor=none;rounded=0;html=1;whiteSpace=wrap;container=0;" parent="f77LYvtL0lH_vqSuSwCJ-25" vertex="1">
          <mxGeometry y="15" width="9" height="9" as="geometry" />
        </mxCell>
        <mxCell id="f77LYvtL0lH_vqSuSwCJ-27" style="vsdxID=9;fillColor=#C0C0C0;gradientColor=none;shape=stencil(rVFBDsIwDHtNj5VCK14wxj8ilm0VZZ3SAuX3tAoIBhwQ4mbHjhMlyjZxxJmUgZg47OnsujQqu1HGuGkkdqkgZVtlmz4wDRyOUyd8xuqs6BBONSFLH9QOAxdha6FbcSLvisR5oQEvvfegFXyMgqwxu6g5JEwuTIupHnkgXcbo3uNwyxEpnonmt/Ivi/1nLfhirQIeZ+6d9/KlZ/31LaUkL7XtFQ==);strokeColor=#000000;spacingTop=-3;spacingBottom=-3;spacingLeft=-3;spacingRight=-3;points=[];labelBackgroundColor=none;rounded=0;html=1;whiteSpace=wrap;container=0;" parent="f77LYvtL0lH_vqSuSwCJ-25" vertex="1">
          <mxGeometry x="15" y="15" width="9" height="9" as="geometry" />
        </mxCell>
        <mxCell id="f77LYvtL0lH_vqSuSwCJ-28" style="vsdxID=10;fillColor=#C0C0C0;gradientColor=none;shape=stencil(rVFBDsIwDHtNj5VCK14wxj8ilm0VZZ3SAuX3tAoIBhwQ4mbHjhMlyjZxxJmUgZg47OnsujQqu1HGuGkkdqkgZVtlmz4wDRyOUyd8xuqs6BBONSFLH9QOAxdha6FbcSLvisR5oQEvvfegFXyMgqwxu6g5JEwuTIupHnkgXcbo3uNwyxEpnonmt/Ivi/1nLfhirQIeZ+6d9/KlZ/31LaUkL7XtFQ==);strokeColor=#000000;spacingTop=-3;spacingBottom=-3;spacingLeft=-3;spacingRight=-3;points=[];labelBackgroundColor=none;rounded=0;html=1;whiteSpace=wrap;container=0;" parent="f77LYvtL0lH_vqSuSwCJ-25" vertex="1">
          <mxGeometry x="7" width="9" height="9" as="geometry" />
        </mxCell>
        <mxCell id="f77LYvtL0lH_vqSuSwCJ-29" value="" style="vsdxID=11;edgeStyle=none;startArrow=none;endArrow=none;startSize=5;endSize=5;strokeColor=#000000;spacingTop=-3;spacingBottom=-3;spacingLeft=-3;spacingRight=-3;verticalAlign=middle;html=1;labelBackgroundColor=none;rounded=0;" parent="f77LYvtL0lH_vqSuSwCJ-25" edge="1">
          <mxGeometry relative="1" as="geometry">
            <Array as="points" />
            <mxPoint x="6" y="15" as="sourcePoint" />
            <mxPoint x="10" y="9" as="targetPoint" />
          </mxGeometry>
        </mxCell>
        <mxCell id="f77LYvtL0lH_vqSuSwCJ-30" value="" style="vsdxID=12;edgeStyle=none;startArrow=none;endArrow=none;startSize=5;endSize=5;strokeColor=#000000;spacingTop=-3;spacingBottom=-3;spacingLeft=-3;spacingRight=-3;verticalAlign=middle;html=1;labelBackgroundColor=none;rounded=0;" parent="f77LYvtL0lH_vqSuSwCJ-25" target="f77LYvtL0lH_vqSuSwCJ-28" edge="1">
          <mxGeometry relative="1" as="geometry">
            <Array as="points" />
            <mxPoint x="18" y="15" as="sourcePoint" />
            <mxPoint x="15" y="9" as="targetPoint" />
          </mxGeometry>
        </mxCell>
        <object label="JWT Hierarchy" btelligentShapeType="Hierarchy" btelligentLibrary="ADAPT" id="f77LYvtL0lH_vqSuSwCJ-31">
          <mxCell style="group;fillColor=default;verticalAlign=middle;align=left;spacingLeft=32;" parent="1" vertex="1" connectable="0">
            <mxGeometry x="840" y="240" width="160" height="40" as="geometry" />
          </mxCell>
        </object>
        <mxCell id="f77LYvtL0lH_vqSuSwCJ-32" value="Hierarchy" style="shape=loopLimit;whiteSpace=wrap;html=1;size=20;verticalAlign=middle;spacingLeft=37;align=left;container=0;fillColor=none;noLabel=1;editable=0;movable=1;resizable=1;rotatable=1;deletable=1;locked=0;connectable=1;" parent="f77LYvtL0lH_vqSuSwCJ-31" vertex="1">
          <mxGeometry width="160" height="40" as="geometry" />
        </mxCell>
        <mxCell id="f77LYvtL0lH_vqSuSwCJ-33" value="" style="group;movable=1;resizable=1;rotatable=1;deletable=1;editable=1;locked=0;connectable=1;" parent="f77LYvtL0lH_vqSuSwCJ-31" vertex="1" connectable="0">
          <mxGeometry x="5" y="10" width="24" height="24" as="geometry" />
        </mxCell>
        <mxCell id="f77LYvtL0lH_vqSuSwCJ-34" style="vsdxID=8;fillColor=#C0C0C0;gradientColor=none;shape=stencil(rVFBDsIwDHtNj5VCK14wxj8ilm0VZZ3SAuX3tAoIBhwQ4mbHjhMlyjZxxJmUgZg47OnsujQqu1HGuGkkdqkgZVtlmz4wDRyOUyd8xuqs6BBONSFLH9QOAxdha6FbcSLvisR5oQEvvfegFXyMgqwxu6g5JEwuTIupHnkgXcbo3uNwyxEpnonmt/Ivi/1nLfhirQIeZ+6d9/KlZ/31LaUkL7XtFQ==);strokeColor=#000000;spacingTop=-3;spacingBottom=-3;spacingLeft=-3;spacingRight=-3;points=[];labelBackgroundColor=none;rounded=0;html=1;whiteSpace=wrap;container=0;" parent="f77LYvtL0lH_vqSuSwCJ-33" vertex="1">
          <mxGeometry y="15" width="9" height="9" as="geometry" />
        </mxCell>
        <mxCell id="f77LYvtL0lH_vqSuSwCJ-35" style="vsdxID=9;fillColor=#C0C0C0;gradientColor=none;shape=stencil(rVFBDsIwDHtNj5VCK14wxj8ilm0VZZ3SAuX3tAoIBhwQ4mbHjhMlyjZxxJmUgZg47OnsujQqu1HGuGkkdqkgZVtlmz4wDRyOUyd8xuqs6BBONSFLH9QOAxdha6FbcSLvisR5oQEvvfegFXyMgqwxu6g5JEwuTIupHnkgXcbo3uNwyxEpnonmt/Ivi/1nLfhirQIeZ+6d9/KlZ/31LaUkL7XtFQ==);strokeColor=#000000;spacingTop=-3;spacingBottom=-3;spacingLeft=-3;spacingRight=-3;points=[];labelBackgroundColor=none;rounded=0;html=1;whiteSpace=wrap;container=0;" parent="f77LYvtL0lH_vqSuSwCJ-33" vertex="1">
          <mxGeometry x="15" y="15" width="9" height="9" as="geometry" />
        </mxCell>
        <mxCell id="f77LYvtL0lH_vqSuSwCJ-36" style="vsdxID=10;fillColor=#C0C0C0;gradientColor=none;shape=stencil(rVFBDsIwDHtNj5VCK14wxj8ilm0VZZ3SAuX3tAoIBhwQ4mbHjhMlyjZxxJmUgZg47OnsujQqu1HGuGkkdqkgZVtlmz4wDRyOUyd8xuqs6BBONSFLH9QOAxdha6FbcSLvisR5oQEvvfegFXyMgqwxu6g5JEwuTIupHnkgXcbo3uNwyxEpnonmt/Ivi/1nLfhirQIeZ+6d9/KlZ/31LaUkL7XtFQ==);strokeColor=#000000;spacingTop=-3;spacingBottom=-3;spacingLeft=-3;spacingRight=-3;points=[];labelBackgroundColor=none;rounded=0;html=1;whiteSpace=wrap;container=0;" parent="f77LYvtL0lH_vqSuSwCJ-33" vertex="1">
          <mxGeometry x="7" width="9" height="9" as="geometry" />
        </mxCell>
        <mxCell id="f77LYvtL0lH_vqSuSwCJ-37" value="" style="vsdxID=11;edgeStyle=none;startArrow=none;endArrow=none;startSize=5;endSize=5;strokeColor=#000000;spacingTop=-3;spacingBottom=-3;spacingLeft=-3;spacingRight=-3;verticalAlign=middle;html=1;labelBackgroundColor=none;rounded=0;" parent="f77LYvtL0lH_vqSuSwCJ-33" edge="1">
          <mxGeometry relative="1" as="geometry">
            <Array as="points" />
            <mxPoint x="6" y="15" as="sourcePoint" />
            <mxPoint x="10" y="9" as="targetPoint" />
          </mxGeometry>
        </mxCell>
        <mxCell id="f77LYvtL0lH_vqSuSwCJ-38" value="" style="vsdxID=12;edgeStyle=none;startArrow=none;endArrow=none;startSize=5;endSize=5;strokeColor=#000000;spacingTop=-3;spacingBottom=-3;spacingLeft=-3;spacingRight=-3;verticalAlign=middle;html=1;labelBackgroundColor=none;rounded=0;" parent="f77LYvtL0lH_vqSuSwCJ-33" target="f77LYvtL0lH_vqSuSwCJ-36" edge="1">
          <mxGeometry relative="1" as="geometry">
            <Array as="points" />
            <mxPoint x="18" y="15" as="sourcePoint" />
            <mxPoint x="15" y="9" as="targetPoint" />
          </mxGeometry>
        </mxCell>
        <UserObject label="Eins" btelligentShapeType="LoosePrecedence" btelligentLibrary="ADAPT" id="f77LYvtL0lH_vqSuSwCJ-39">
          <mxCell style="vsdxID=5;startArrow=none;endArrow=block;startSize=10;endSize=10;strokeColor=#000000;spacingTop=2;spacingBottom=2;spacingLeft=2;spacingRight=2;verticalAlign=middle;html=1;labelBackgroundColor=#FFFFFF;rounded=1;jumpStyle=arc;startFill=0;endFill=1;fontStyle=2;labelBorderColor=none;edgeStyle=orthogonalEdgeStyle;" parent="1" source="f77LYvtL0lH_vqSuSwCJ-1" target="f77LYvtL0lH_vqSuSwCJ-7" edge="1">
            <mxGeometry relative="1" as="geometry">
              <mxPoint x="240" y="170" as="sourcePoint" />
              <mxPoint x="170" y="190" as="targetPoint" />
              <mxPoint as="offset" />
            </mxGeometry>
          </mxCell>
        </UserObject>
        <UserObject label="" tooltip="ADAPT HierarchyLevel" id="f77LYvtL0lH_vqSuSwCJ-43">
          <mxCell style="group" parent="1" vertex="1" connectable="0">
            <mxGeometry x="840" y="360" width="160" height="40" as="geometry" />
          </mxCell>
        </UserObject>
        <mxCell id="f77LYvtL0lH_vqSuSwCJ-44" value="Jahr" style="rounded=1;whiteSpace=wrap;html=1;arcSize=50;align=left;spacingLeft=38;" parent="f77LYvtL0lH_vqSuSwCJ-43" vertex="1">
          <mxGeometry width="160" height="40" as="geometry" />
        </mxCell>
        <mxCell id="f77LYvtL0lH_vqSuSwCJ-45" value="&lt;div style=&quot;font-size: 1px&quot;&gt;&lt;/div&gt;" style="verticalAlign=middle;align=center;overflow=width;vsdxID=9;fillColor=#C0C0C0;gradientColor=none;shape=stencil(UzV2Ls5ILEhVNTIoLinKz04tz0wpyVA1dlE1MsrMy0gtyiwBslSNXVWNndPyi1LTi/JL81Ig/IJEkEoQKze/DGRCBUSfqQFIi5FBJYQL4blBVOZk5iGpRFVoaIBHKUySKMX4XABkIByelpmTA/E3sjy6R4FCkEAydgUA);strokeColor=#000000;spacingTop=-3;spacingBottom=-3;spacingLeft=-3;spacingRight=-3;points=[];labelBackgroundColor=none;rounded=0;html=1;whiteSpace=wrap;container=0;" parent="f77LYvtL0lH_vqSuSwCJ-43" vertex="1">
          <mxGeometry x="12" y="14" width="13" height="11" as="geometry" />
        </mxCell>
        <mxCell id="f77LYvtL0lH_vqSuSwCJ-46" value="&lt;div style=&quot;font-size: 24px;&quot;&gt;&lt;font style=&quot;font-size: 24px; font-family: Calibri; color: rgb(0, 0, 0); direction: ltr; letter-spacing: 0px; line-height: 120%; opacity: 1;&quot;&gt;{&amp;nbsp;  }&lt;br style=&quot;font-size: 24px;&quot;&gt;&lt;/font&gt;&lt;/div&gt;" style="verticalAlign=middle;align=center;overflow=width;vsdxID=10;fillColor=none;gradientColor=none;shape=stencil(nZBLDoAgDERP0z3SIyjew0SURgSD+Lu9kMZoXLhwN9O+tukAlrNpJg1SzDH4QW/URgNYgZTkjA4UkwJUgGXng+6DX1zLfmoymdXo17xh5zmRJ6Q42BWCfc2oJfdAr+Yv+AP9Cb7OJ3H/2JG1HNGz/84klThPVCc=);strokeColor=none;spacingTop=0;spacingBottom=0;spacingLeft=0;spacingRight=0;points=[];labelBackgroundColor=none;rounded=0;html=1;whiteSpace=wrap;container=0;fontSize=24;fontStyle=0;horizontal=1;" parent="f77LYvtL0lH_vqSuSwCJ-43" vertex="1">
          <mxGeometry x="3" y="3" width="30" height="30" as="geometry" />
        </mxCell>
        <UserObject label="" tooltip="ADAPT StrictPrecedence" id="f77LYvtL0lH_vqSuSwCJ-47">
          <mxCell style="vsdxID=5;edgeStyle=orthogonalEdgeStyle;startArrow=doubleBlock;endArrow=none;startSize=10;endSize=0;strokeColor=#000000;spacingTop=0;spacingBottom=0;spacingLeft=0;spacingRight=0;verticalAlign=middle;html=1;labelBackgroundColor=#FFFFFF;rounded=1;jumpStyle=arc;startFill=1;" parent="1" source="f77LYvtL0lH_vqSuSwCJ-32" target="f77LYvtL0lH_vqSuSwCJ-44" edge="1">
            <mxGeometry x="-152" y="-991" relative="1" as="geometry">
              <mxPoint x="410" y="320" as="sourcePoint" />
              <mxPoint x="410" y="370" as="targetPoint" />
            </mxGeometry>
          </mxCell>
        </UserObject>
        <UserObject label="Zwei" btelligentShapeType="LoosePrecedence" btelligentLibrary="ADAPT" id="vdX0nlRlNV5u23rPeZXY-1">
          <mxCell style="vsdxID=5;startArrow=none;endArrow=block;startSize=10;endSize=10;strokeColor=#000000;spacingTop=2;spacingBottom=2;spacingLeft=2;spacingRight=2;verticalAlign=middle;html=1;labelBackgroundColor=#FFFFFF;rounded=1;jumpStyle=arc;startFill=0;endFill=1;fontStyle=2;labelBorderColor=none;edgeStyle=orthogonalEdgeStyle;" edge="1" parent="1" source="f77LYvtL0lH_vqSuSwCJ-2" target="f77LYvtL0lH_vqSuSwCJ-16">
            <mxGeometry relative="1" as="geometry">
              <mxPoint x="530" y="120" as="sourcePoint" />
              <mxPoint x="530" y="180" as="targetPoint" />
              <mxPoint as="offset" />
            </mxGeometry>
          </mxCell>
        </UserObject>
        <UserObject label="Drei" btelligentShapeType="LoosePrecedence" btelligentLibrary="ADAPT" id="vdX0nlRlNV5u23rPeZXY-2">
          <mxCell style="vsdxID=5;startArrow=none;endArrow=block;startSize=10;endSize=10;strokeColor=#000000;spacingTop=2;spacingBottom=2;spacingLeft=2;spacingRight=2;verticalAlign=middle;html=1;labelBackgroundColor=#FFFFFF;rounded=1;jumpStyle=arc;startFill=0;endFill=1;fontStyle=2;labelBorderColor=none;edgeStyle=orthogonalEdgeStyle;" edge="1" parent="1" source="f77LYvtL0lH_vqSuSwCJ-2" target="f77LYvtL0lH_vqSuSwCJ-24">
            <mxGeometry relative="1" as="geometry">
              <mxPoint x="650" y="90" as="sourcePoint" />
              <mxPoint x="650" y="150" as="targetPoint" />
              <mxPoint as="offset" />
            </mxGeometry>
          </mxCell>
        </UserObject>
        <UserObject label="Vier" btelligentShapeType="LoosePrecedence" btelligentLibrary="ADAPT" id="vdX0nlRlNV5u23rPeZXY-3">
          <mxCell style="vsdxID=5;startArrow=none;endArrow=block;startSize=10;endSize=10;strokeColor=#000000;spacingTop=2;spacingBottom=2;spacingLeft=2;spacingRight=2;verticalAlign=middle;html=1;labelBackgroundColor=#FFFFFF;rounded=1;jumpStyle=arc;startFill=0;endFill=1;fontStyle=2;labelBorderColor=none;edgeStyle=orthogonalEdgeStyle;" edge="1" parent="1" source="f77LYvtL0lH_vqSuSwCJ-2" target="f77LYvtL0lH_vqSuSwCJ-32">
            <mxGeometry relative="1" as="geometry">
              <mxPoint x="820" y="70" as="sourcePoint" />
              <mxPoint x="820" y="130" as="targetPoint" />
              <mxPoint as="offset" />
            </mxGeometry>
          </mxCell>
        </UserObject>
        <object label="&lt;Hierarchy Level&gt;" btelligentShapeType="HierarchyLevel" btelligentLibrary="ADAPT" id="vdX0nlRlNV5u23rPeZXY-38">
          <mxCell style="group;fillColor=default;verticalAlign=middle;align=left;spacingLeft=34;connectable=1;" vertex="1" connectable="0" parent="1">
            <mxGeometry x="560" y="480" width="160" height="40" as="geometry" />
          </mxCell>
        </object>
        <mxCell id="vdX0nlRlNV5u23rPeZXY-39" value="" style="group;movable=0;resizable=0;rotatable=0;deletable=0;editable=0;locked=1;connectable=0;" vertex="1" connectable="0" parent="vdX0nlRlNV5u23rPeZXY-38">
          <mxGeometry x="3" y="2" width="30" height="30" as="geometry" />
        </mxCell>
        <mxCell id="vdX0nlRlNV5u23rPeZXY-40" value="&lt;div style=&quot;font-size: 1px&quot;&gt;&lt;/div&gt;" style="verticalAlign=middle;align=center;overflow=width;vsdxID=9;fillColor=#C0C0C0;gradientColor=none;shape=stencil(UzV2Ls5ILEhVNTIoLinKz04tz0wpyVA1dlE1MsrMy0gtyiwBslSNXVWNndPyi1LTi/JL81Ig/IJEkEoQKze/DGRCBUSfqQFIi5FBJYQL4blBVOZk5iGpRFVoaIBHKUySKMX4XABkIByelpmTA/E3sjy6R4FCkEAydgUA);strokeColor=#000000;spacingTop=-3;spacingBottom=-3;spacingLeft=-3;spacingRight=-3;points=[];labelBackgroundColor=none;rounded=0;html=1;whiteSpace=wrap;container=0;" vertex="1" parent="vdX0nlRlNV5u23rPeZXY-39">
          <mxGeometry x="9" y="11" width="13" height="11" as="geometry" />
        </mxCell>
        <mxCell id="vdX0nlRlNV5u23rPeZXY-41" value="&lt;div style=&quot;font-size: 24px;&quot;&gt;&lt;font style=&quot;font-size: 24px; font-family: Calibri; color: rgb(0, 0, 0); direction: ltr; letter-spacing: 0px; line-height: 120%; opacity: 1;&quot;&gt;{&amp;nbsp;  }&lt;br style=&quot;font-size: 24px;&quot;&gt;&lt;/font&gt;&lt;/div&gt;" style="verticalAlign=middle;align=center;overflow=width;vsdxID=10;fillColor=none;gradientColor=none;shape=stencil(nZBLDoAgDERP0z3SIyjew0SURgSD+Lu9kMZoXLhwN9O+tukAlrNpJg1SzDH4QW/URgNYgZTkjA4UkwJUgGXng+6DX1zLfmoymdXo17xh5zmRJ6Q42BWCfc2oJfdAr+Yv+AP9Cb7OJ3H/2JG1HNGz/84klThPVCc=);strokeColor=none;spacingTop=0;spacingBottom=0;spacingLeft=0;spacingRight=0;points=[];labelBackgroundColor=none;rounded=0;html=1;whiteSpace=wrap;container=0;fontSize=24;fontStyle=0;horizontal=1;" vertex="1" parent="vdX0nlRlNV5u23rPeZXY-39">
          <mxGeometry width="30" height="30" as="geometry" />
        </mxCell>
        <object label="" ADAPT="Hierarchy Level" id="vdX0nlRlNV5u23rPeZXY-42">
          <mxCell style="rounded=1;whiteSpace=wrap;html=1;arcSize=50;fillColor=none;noLabel=1;connectable=0;editable=0;" vertex="1" parent="vdX0nlRlNV5u23rPeZXY-38">
            <mxGeometry width="160" height="40" as="geometry" />
          </mxCell>
        </object>
      </root>
    </mxGraphModel>
  </diagram>
</mxfile>
